<?xml version="1.0" encoding="UTF-8"?><svg xmlns="http://www.w3.org/2000/svg" xmlns:xlink="http://www.w3.org/1999/xlink" width="768" zoomAndPan="magnify" viewBox="0 0 768 767.999994" height="767.999994" preserveAspectRatio="xMidYMid meet" version="1.0"><defs><clipPath id="clip-0"><path d="M 371 307.199219 L 412 307.199219 L 412 351 L 371 351 Z M 371 307.199219 " clip-rule="nonzero"/></clipPath><clipPath id="clip-1"><path d="M 342 334 L 443 334 L 443 460.949219 L 342 460.949219 Z M 342 334 " clip-rule="nonzero"/></clipPath><clipPath id="clip-2"><path d="M 351 334 L 451.554688 334 L 451.554688 460.949219 L 351 460.949219 Z M 351 334 " clip-rule="nonzero"/></clipPath><clipPath id="clip-3"><path d="M 381 307.199219 L 422 307.199219 L 422 351 L 381 351 Z M 381 307.199219 " clip-rule="nonzero"/></clipPath><clipPath id="clip-4"><path d="M 316.554688 371 L 373 371 L 373 460.949219 L 316.554688 460.949219 Z M 316.554688 371 " clip-rule="nonzero"/></clipPath></defs><g clip-path="url(#clip-0)"><path stroke-linecap="round" transform="matrix(0.0667656, 0, 0, -0.0667738, 242.112003, 527.17125)" fill="none" stroke-linejoin="round" d="M 2497.212501 2673.604975 L 2497.212501 2995.70463 C 2497.212501 3141.603021 2379.028475 3259.889527 2233.112158 3259.889527 C 2087.195842 3259.889527 1969.011816 3141.603021 1969.011816 2995.70463 L 1969.011816 2673.604975 " stroke="rgb(6.269836%, 5.879211%, 5.879211%)" stroke-width="68.362999" stroke-opacity="1" stroke-miterlimit="10"/></g><g clip-path="url(#clip-1)"><path fill="rgb(96.859741%, 57.649231%, 14.898682%)" d="M 442.480469 455.382812 C 442.480469 458.425781 439.992188 460.917969 436.941406 460.917969 L 347.601562 460.917969 C 344.550781 460.917969 342.058594 458.425781 342.058594 455.382812 L 352.449219 339.835938 C 352.449219 336.792969 354.945312 334.296875 357.992188 334.296875 L 426.550781 334.296875 C 429.601562 334.296875 432.09375 336.792969 432.09375 339.835938 L 442.480469 455.382812 " fill-opacity="1" fill-rule="nonzero"/></g><g clip-path="url(#clip-2)"><path fill="rgb(97.648621%, 68.629456%, 13.729858%)" d="M 451.554688 455.382812 C 451.554688 458.425781 449.058594 460.917969 446.015625 460.917969 L 356.667969 460.917969 C 353.625 460.917969 351.125 458.425781 351.125 455.382812 L 361.515625 339.835938 C 361.515625 336.792969 364.011719 334.296875 367.058594 334.296875 L 435.625 334.296875 C 438.667969 334.296875 441.167969 336.792969 441.167969 339.835938 L 451.554688 455.382812 " fill-opacity="1" fill-rule="nonzero"/></g><path fill="rgb(96.859741%, 57.649231%, 14.898682%)" d="M 388.683594 348.644531 C 388.683594 351.578125 386.3125 353.945312 383.386719 353.945312 C 380.457031 353.945312 378.085938 351.578125 378.085938 348.644531 C 378.085938 345.71875 380.457031 343.351562 383.386719 343.351562 C 386.3125 343.351562 388.683594 345.71875 388.683594 348.644531 " fill-opacity="1" fill-rule="nonzero"/><path fill="rgb(96.859741%, 57.649231%, 14.898682%)" d="M 424.59375 348.644531 C 424.59375 351.578125 422.226562 353.945312 419.292969 353.945312 C 416.371094 353.945312 414 351.578125 414 348.644531 C 414 345.71875 416.371094 343.351562 419.292969 343.351562 C 422.226562 343.351562 424.59375 345.71875 424.59375 348.644531 " fill-opacity="1" fill-rule="nonzero"/><g clip-path="url(#clip-3)"><path stroke-linecap="round" transform="matrix(0.0667656, 0, 0, -0.0667738, 242.112003, 527.17125)" fill="none" stroke-linejoin="round" d="M 2648.979512 2673.604975 L 2648.979512 2995.70463 C 2648.979512 3141.603021 2530.795486 3259.889527 2384.879169 3259.889527 C 2239.02136 3259.889527 2120.778827 3141.603021 2120.778827 2995.70463 L 2120.778827 2673.604975 " stroke="rgb(7.839966%, 8.239746%, 8.239746%)" stroke-width="68.362999" stroke-opacity="1" stroke-miterlimit="10"/></g><path fill="rgb(7.839966%, 8.239746%, 8.239746%)" d="M 374.894531 384.617188 L 365.429688 384.617188 C 364.320312 384.617188 363.425781 385.511719 363.425781 386.617188 L 363.425781 442.9375 C 363.425781 444.042969 364.320312 444.9375 365.429688 444.9375 L 374.894531 444.9375 L 374.894531 384.617188 " fill-opacity="1" fill-rule="nonzero"/><path fill="rgb(7.839966%, 8.239746%, 8.239746%)" d="M 378.886719 384.617188 L 376.566406 384.617188 L 376.566406 444.9375 L 378.886719 444.9375 C 379.996094 444.9375 380.890625 444.042969 380.890625 442.9375 L 380.890625 386.617188 C 380.890625 385.511719 379.996094 384.617188 378.886719 384.617188 " fill-opacity="1" fill-rule="nonzero"/><g clip-path="url(#clip-4)"><path fill="rgb(7.839966%, 8.239746%, 8.239746%)" d="M 372.699219 458.914062 C 372.699219 460.023438 371.804688 460.917969 370.695312 460.917969 L 318.566406 460.917969 C 317.457031 460.917969 316.554688 460.023438 316.554688 458.914062 L 316.554688 373.191406 C 316.554688 372.082031 317.457031 371.179688 318.566406 371.179688 L 370.695312 371.179688 C 371.804688 371.179688 372.699219 372.082031 372.699219 373.191406 L 372.699219 458.914062 " fill-opacity="1" fill-rule="nonzero"/></g><path fill="rgb(93.328857%, 93.328857%, 92.549133%)" d="M 367.9375 392.640625 C 367.9375 393.75 367.035156 394.644531 365.933594 394.644531 L 323.324219 394.644531 C 322.21875 394.644531 321.324219 393.75 321.324219 392.640625 L 321.324219 379.441406 C 321.324219 378.332031 322.21875 377.429688 323.324219 377.429688 L 365.933594 377.429688 C 367.035156 377.429688 367.9375 378.332031 367.9375 379.441406 L 367.9375 392.640625 " fill-opacity="1" fill-rule="nonzero"/><path fill="rgb(93.328857%, 93.328857%, 92.549133%)" d="M 334.984375 408.507812 C 334.984375 409.515625 334.167969 410.332031 333.160156 410.332031 L 323.140625 410.332031 C 322.136719 410.332031 321.324219 409.515625 321.324219 408.507812 L 321.324219 400.613281 C 321.324219 399.605469 322.136719 398.792969 323.140625 398.792969 L 333.160156 398.792969 C 334.167969 398.792969 334.984375 399.605469 334.984375 400.613281 L 334.984375 408.507812 " fill-opacity="1" fill-rule="nonzero"/><path fill="rgb(93.328857%, 93.328857%, 92.549133%)" d="M 367.9375 408.507812 C 367.9375 409.515625 367.125 410.332031 366.117188 410.332031 L 356.09375 410.332031 C 355.085938 410.332031 354.273438 409.515625 354.273438 408.507812 L 354.273438 400.613281 C 354.273438 399.605469 355.085938 398.792969 356.09375 398.792969 L 366.117188 398.792969 C 367.125 398.792969 367.9375 399.605469 367.9375 400.613281 L 367.9375 408.507812 " fill-opacity="1" fill-rule="nonzero"/><path fill="rgb(93.328857%, 93.328857%, 92.549133%)" d="M 351.460938 408.507812 C 351.460938 409.515625 350.644531 410.332031 349.636719 410.332031 L 339.617188 410.332031 C 338.613281 410.332031 337.800781 409.515625 337.800781 408.507812 L 337.800781 400.613281 C 337.800781 399.605469 338.613281 398.792969 339.617188 398.792969 L 349.636719 398.792969 C 350.644531 398.792969 351.460938 399.605469 351.460938 400.613281 L 351.460938 408.507812 " fill-opacity="1" fill-rule="nonzero"/><path fill="rgb(93.328857%, 93.328857%, 92.549133%)" d="M 334.984375 423.324219 C 334.984375 424.332031 334.167969 425.148438 333.160156 425.148438 L 323.140625 425.148438 C 322.136719 425.148438 321.324219 424.332031 321.324219 423.324219 L 321.324219 415.433594 C 321.324219 414.421875 322.136719 413.609375 323.140625 413.609375 L 333.160156 413.609375 C 334.167969 413.609375 334.984375 414.421875 334.984375 415.433594 L 334.984375 423.324219 " fill-opacity="1" fill-rule="nonzero"/><path fill="rgb(93.328857%, 93.328857%, 92.549133%)" d="M 367.9375 423.324219 C 367.9375 424.332031 367.125 425.148438 366.117188 425.148438 L 356.09375 425.148438 C 355.085938 425.148438 354.273438 424.332031 354.273438 423.324219 L 354.273438 415.433594 C 354.273438 414.421875 355.085938 413.609375 356.09375 413.609375 L 366.117188 413.609375 C 367.125 413.609375 367.9375 414.421875 367.9375 415.433594 L 367.9375 423.324219 " fill-opacity="1" fill-rule="nonzero"/><path fill="rgb(93.328857%, 93.328857%, 92.549133%)" d="M 351.460938 423.324219 C 351.460938 424.332031 350.644531 425.148438 349.636719 425.148438 L 339.617188 425.148438 C 338.613281 425.148438 337.800781 424.332031 337.800781 423.324219 L 337.800781 415.433594 C 337.800781 414.421875 338.613281 413.609375 339.617188 413.609375 L 349.636719 413.609375 C 350.644531 413.609375 351.460938 414.421875 351.460938 415.433594 L 351.460938 423.324219 " fill-opacity="1" fill-rule="nonzero"/><path fill="rgb(93.328857%, 93.328857%, 92.549133%)" d="M 334.984375 438.148438 C 334.984375 439.148438 334.167969 439.964844 333.160156 439.964844 L 323.140625 439.964844 C 322.136719 439.964844 321.324219 439.148438 321.324219 438.148438 L 321.324219 430.25 C 321.324219 429.242188 322.136719 428.425781 323.140625 428.425781 L 333.160156 428.425781 C 334.167969 428.425781 334.984375 429.242188 334.984375 430.25 L 334.984375 438.148438 " fill-opacity="1" fill-rule="nonzero"/><path fill="rgb(93.328857%, 93.328857%, 92.549133%)" d="M 367.9375 438.148438 C 367.9375 439.148438 367.125 439.964844 366.117188 439.964844 L 356.09375 439.964844 C 355.085938 439.964844 354.273438 439.148438 354.273438 438.148438 L 354.273438 430.25 C 354.273438 429.242188 355.085938 428.425781 356.09375 428.425781 L 366.117188 428.425781 C 367.125 428.425781 367.9375 429.242188 367.9375 430.25 L 367.9375 438.148438 " fill-opacity="1" fill-rule="nonzero"/><path fill="rgb(93.328857%, 93.328857%, 92.549133%)" d="M 351.460938 438.148438 C 351.460938 439.148438 350.644531 439.964844 349.636719 439.964844 L 339.617188 439.964844 C 338.613281 439.964844 337.800781 439.148438 337.800781 438.148438 L 337.800781 430.25 C 337.800781 429.242188 338.613281 428.425781 339.617188 428.425781 L 349.636719 428.425781 C 350.644531 428.425781 351.460938 429.242188 351.460938 430.25 L 351.460938 438.148438 " fill-opacity="1" fill-rule="nonzero"/><path fill="rgb(93.728638%, 19.60907%, 23.919678%)" d="M 334.984375 452.851562 C 334.984375 453.855469 334.167969 454.667969 333.160156 454.667969 L 323.140625 454.667969 C 322.136719 454.667969 321.324219 453.855469 321.324219 452.851562 L 321.324219 444.953125 C 321.324219 443.949219 322.136719 443.128906 323.140625 443.128906 L 333.160156 443.128906 C 334.167969 443.128906 334.984375 443.949219 334.984375 444.953125 L 334.984375 452.851562 " fill-opacity="1" fill-rule="nonzero"/><path fill="rgb(23.529053%, 65.098572%, 27.059937%)" d="M 367.9375 452.851562 C 367.9375 453.855469 367.125 454.667969 366.117188 454.667969 L 356.09375 454.667969 C 355.085938 454.667969 354.273438 453.855469 354.273438 452.851562 L 354.273438 444.953125 C 354.273438 443.949219 355.085938 443.128906 356.09375 443.128906 L 366.117188 443.128906 C 367.125 443.128906 367.9375 443.949219 367.9375 444.953125 L 367.9375 452.851562 " fill-opacity="1" fill-rule="nonzero"/><path fill="rgb(97.648621%, 68.629456%, 13.729858%)" d="M 351.460938 452.851562 C 351.460938 453.855469 350.644531 454.667969 349.636719 454.667969 L 339.617188 454.667969 C 338.613281 454.667969 337.800781 453.855469 337.800781 452.851562 L 337.800781 444.953125 C 337.800781 443.949219 338.613281 443.128906 339.617188 443.128906 L 349.636719 443.128906 C 350.644531 443.128906 351.460938 443.949219 351.460938 444.953125 L 351.460938 452.851562 " fill-opacity="1" fill-rule="nonzero"/><path fill="rgb(7.839966%, 8.239746%, 8.239746%)" d="M 366.488281 374.574219 C 366.488281 375.675781 365.59375 376.578125 364.488281 376.578125 L 324.769531 376.578125 C 323.667969 376.578125 322.765625 375.675781 322.765625 374.574219 L 322.765625 363.429688 C 322.765625 362.320312 323.667969 361.425781 324.769531 361.425781 L 364.488281 361.425781 C 365.59375 361.425781 366.488281 362.320312 366.488281 363.429688 L 366.488281 374.574219 " fill-opacity="1" fill-rule="nonzero"/><path fill="rgb(65.098572%, 65.879822%, 65.489197%)" d="M 362.925781 364.765625 L 327.050781 364.765625 L 327.050781 360.195312 L 362.925781 360.195312 L 362.925781 364.765625 " fill-opacity="1" fill-rule="nonzero"/></svg>